<?xml version="1.0" encoding="UTF-8"?>
<svg width="100pt" height="100pt" version="1.1" viewBox="0 0 100 100" xmlns="http://www.w3.org/2000/svg">
 <g>
  <path d="m23.438 53.125c-3.4375 0-6.25 2.8125-6.25 6.25 0 1.5625 0.625 2.9688 1.5625 4.0625v8.4375h9.375v-8.4375c0.9375-1.0938 1.5625-2.5 1.5625-4.0625 0-3.4375-2.8125-6.25-6.25-6.25zm2.1875 8.4375-0.625 0.46875v6.7188h-3.125v-6.7188l-0.625-0.46875c-0.625-0.46875-0.9375-1.25-0.9375-2.1875 0-1.7188 1.4062-3.125 3.125-3.125s3.125 1.4062 3.125 3.125c0 0.9375-0.3125 1.7188-0.9375 2.1875z"/>
  <path d="m96.875 50h-53.438c-0.46875-1.4062-1.5625-2.3438-2.8125-2.8125v-8.125c0-9.5312-7.6562-17.188-17.188-17.188s-17.188 7.6562-17.188 17.188v8.125c-1.875 0.625-3.125 2.3438-3.125 4.375v21.875c0 2.6562 2.0312 4.6875 4.6875 4.6875h31.25c2.0312 0 3.75-1.25 4.375-3.125h53.438zm-87.5-10.938c0-7.8125 6.25-14.062 14.062-14.062s14.062 6.25 14.062 14.062v7.8125h-3.125v-7.8125c0-6.0938-4.8438-10.938-10.938-10.938s-10.938 4.8438-10.938 10.938v7.8125h-3.125zm21.875 7.8125h-15.625v-7.8125c0-4.375 3.4375-7.8125 7.8125-7.8125s7.8125 3.4375 7.8125 7.8125zm9.375 26.562c0 0.9375-0.625 1.5625-1.5625 1.5625h-31.25c-0.9375 0-1.5625-0.625-1.5625-1.5625v-21.875c0-0.9375 0.625-1.5625 1.5625-1.5625h31.25c0.9375 0 1.5625 0.625 1.5625 1.5625zm53.125-1.5625h-50v-18.75h50z"/>
  <path d="m46.719 63.438 1.25 2.9688 3.5938-1.5625v3.9062h3.125v-3.9062l3.5938 1.5625 1.25-2.9688-2.3438-0.9375 2.3438-0.9375-1.25-2.9688-3.5938 1.5625v-3.9062h-3.125v3.9062l-3.5938-1.5625-1.25 2.9688 2.3438 0.9375z"/>
  <path d="m63.594 66.406 3.5938-1.5625v3.9062h3.125v-3.9062l3.5938 1.5625 1.25-2.9688-2.3438-0.9375 2.3438-0.9375-1.25-2.9688-3.5938 1.5625v-3.9062h-3.125v3.9062l-3.5938-1.5625-1.25 2.9688 2.3438 0.9375-2.3438 0.9375z"/>
  <path d="m79.219 66.406 3.5938-1.5625v3.9062h3.125v-3.9062l3.5938 1.5625 1.25-2.9688-2.3438-0.9375 2.3438-0.9375-1.25-2.9688-3.5938 1.5625v-3.9062h-3.125v3.9062l-3.5938-1.5625-1.25 2.9688 2.3438 0.9375-2.3438 0.9375z"/>
 </g>
</svg>
